<?xml version="1.0" encoding="UTF-8" standalone="no"?>
<!DOCTYPE svg PUBLIC "-//W3C//DTD SVG 1.1//EN" "http://www.w3.org/Graphics/SVG/1.1/DTD/svg11.dtd">
<svg viewBox="0 0 538 589" version="1.1" xmlns="http://www.w3.org/2000/svg" xmlns:xlink="http://www.w3.org/1999/xlink" xml:space="preserve" xmlns:serif="http://www.serif.com/" style="fill-rule:evenodd;clip-rule:evenodd;stroke-linejoin:round;stroke-miterlimit:2;">
    <g transform="matrix(1,0,0,1,-4364.918051,-9981.693597)">
        <g transform="matrix(1,0,0,1,0,90.905512)">
            <g transform="matrix(1,0,0,1,0,-90.905512)">
                <path d="M4386.708,10189.894C4387.57,10191.319 4389.167,10193.96 4390.59,10196.293L4395.308,10195.114C4399.947,10193.954 4404.282,10196.002 4406.539,10198.714L4407.986,10201.02L4408.799,10204.134L4408.679,10206.592L4407.859,10209.044C4403.94,10216.881 4409.419,10222.486 4416.485,10227.965C4425.735,10235.138 4438.388,10241.5 4448.84,10248.216C4456.991,10253.453 4463.874,10259.013 4467.832,10264.966C4470.808,10269.442 4472.954,10272.494 4474.788,10274.947C4476.512,10263.676 4477.269,10259.512 4477.388,10258.869C4475.991,10245.623 4474.635,10238.341 4476.534,10230.639C4478.445,10222.891 4483.616,10214.497 4496.56,10199.396C4522.835,10168.742 4542.527,10156.328 4561.612,10154.114C4574.669,10152.599 4587.691,10155.792 4602.667,10162.069C4625.13,10171.483 4652.582,10188.061 4693.7,10203.138C4699.613,10205.306 4708.182,10214.118 4714.402,10228.237C4727.02,10256.88 4732.336,10307.771 4691.685,10352.518C4690.555,10353.762 4689.465,10355.324 4688.838,10356.269C4689.429,10356.813 4690.254,10357.548 4690.967,10358.085C4693.22,10359.781 4696.026,10361.68 4699.202,10364.062C4739.176,10394.043 4780.93,10386.834 4803.093,10385.43C4810.594,10384.954 4816.378,10385.28 4820.012,10386.679C4824.957,10388.583 4827.72,10391.943 4828.439,10396.973C4829.76,10406.222 4827.989,10413.169 4824.434,10418.311C4819.305,10425.731 4809.849,10429.838 4797.346,10430.355C4761.48,10431.837 4697.208,10403.789 4676.263,10390.745C4675.701,10392.674 4675.065,10395.294 4674.698,10398.233C4674.006,10403.769 4670.158,10434.173 4657.137,10460.503C4647.807,10479.369 4633.755,10495.949 4613.673,10501.687C4607.47,10503.46 4603.983,10504.549 4602.355,10507.029C4601.291,10508.651 4601.286,10510.697 4601.151,10513.306C4600.926,10517.675 4601.001,10523.1 4600.445,10530.043C4598.924,10549.053 4603.048,10551.798 4604.665,10552.705L4606.505,10554.003L4607.985,10555.746L4609.016,10558.102L4609.238,10561.071L4608.368,10563.973L4606.766,10566.159C4603.279,10569.646 4600.13,10570.606 4597.289,10570.499C4595.136,10570.417 4592.788,10569.717 4590.235,10567.679C4587.359,10565.382 4583.179,10559.569 4574.56,10549.49L4572.548,10550.184L4569.191,10550.032L4566.043,10548.425L4564.054,10546.024C4563.636,10545.269 4562.948,10543.423 4562.693,10540.592C4562.53,10538.785 4562.411,10536 4562.09,10532.761L4561.959,10532.666L4560.812,10530.991L4560.101,10529.003C4559.994,10528.506 4559.615,10526.775 4560.631,10523.613C4560.47,10522.928 4560.293,10522.243 4560.101,10521.562C4485.773,10490.639 4482.812,10490.987 4477.48,10486.874C4476.474,10486.809 4471.252,10486.5 4467.261,10486.817C4456.26,10487.689 4441.99,10490.007 4431.552,10490.021C4426.236,10490.028 4421.724,10489.391 4418.546,10488.136C4414.684,10486.61 4412.175,10484.155 4410.827,10481.187C4409.441,10478.137 4409.049,10474.113 4411.336,10468.984C4414.037,10462.924 4422.041,10453.442 4438.507,10439.69C4438.694,10439.259 4439.722,10436.853 4440.18,10434.962C4441.131,10431.032 4441.787,10426.025 4442.261,10420.418C4444.664,10391.958 4442.274,10349.233 4442.865,10344.434C4443.041,10343 4443.603,10341.641 4444.49,10340.5L4463.263,10316.363C4436.586,10301.493 4438.223,10294.664 4415.453,10266.087C4414.993,10265.743 4412.981,10264.247 4411.238,10263.053C4404.073,10258.146 4391.954,10250.102 4382.165,10240.626C4371.2,10230.012 4363.615,10217.404 4365.123,10205.338C4366.629,10193.288 4373.445,10179.889 4374.317,10178.744L4376.607,10176.678L4379.397,10175.638L4381.053,10175.528L4383.045,10175.858L4385.041,10176.767L4386.631,10178.092L4387.752,10179.639L4388.501,10181.505L4388.694,10184.613C4388.651,10184.938 4388.193,10186.626 4386.708,10189.894ZM4575.456,10517.138C4577.47,10518.194 4578.946,10520.063 4579.5,10522.282C4580.266,10525.345 4580.346,10527.603 4580.289,10529.487C4580.27,10530.113 4580.228,10531.037 4580.207,10531.477C4580.401,10531.754 4580.808,10532.317 4581.176,10532.731C4582.199,10533.882 4583.192,10535.009 4584.153,10536.106C4584.176,10533.848 4584.285,10531.407 4584.496,10528.767C4585.159,10520.488 4584.917,10514.381 4585.377,10509.654C4585.825,10505.052 4586.911,10501.401 4588.979,10498.25C4592.042,10493.583 4597.603,10489.638 4609.277,10486.303C4625.028,10481.803 4635.478,10468.207 4642.795,10453.41C4654.743,10429.25 4658.186,10401.328 4658.821,10396.248C4660.018,10386.67 4662.14,10381.416 4664.046,10378.554C4666.714,10374.55 4669.749,10373.244 4672.251,10372.774C4676.723,10371.934 4680.581,10374.284 4681.925,10375.292C4695.818,10385.711 4761.278,10415.832 4796.685,10414.369C4803.211,10414.099 4808.596,10413.085 4811.273,10409.213C4812.617,10407.268 4813.059,10404.71 4812.843,10401.506C4810.875,10401.378 4807.21,10401.201 4804.104,10401.398C4779.636,10402.948 4733.736,10409.963 4689.602,10376.862C4684.769,10373.238 4680.769,10370.641 4678.137,10368.25C4674.974,10365.378 4673.236,10362.444 4672.606,10359.384C4671.722,10355.087 4672.872,10349.432 4679.842,10341.76C4714.884,10303.186 4710.637,10259.378 4699.76,10234.687C4697.151,10228.766 4694.201,10223.992 4691.321,10220.82C4690.167,10219.549 4689.186,10218.524 4688.192,10218.16C4646.775,10202.974 4619.109,10186.308 4596.483,10176.825C4584.406,10171.764 4573.986,10168.786 4563.456,10170.007C4547.157,10171.898 4531.146,10183.631 4508.708,10209.809C4498.332,10221.914 4493.6,10228.258 4492.069,10234.47C4490.532,10240.703 4492.182,10246.572 4493.314,10257.322C4493.548,10259.549 4493.264,10259.444 4489.558,10284.293L4491.542,10297.584C4492.08,10301.189 4490.113,10304.703 4486.759,10306.128C4483.404,10307.554 4479.509,10306.531 4477.287,10303.641C4465.44,10288.23 4464.985,10289.58 4454.509,10273.825C4451.574,10269.411 4446.235,10265.56 4440.191,10261.677C4433.281,10257.236 4425.46,10252.918 4418.213,10248.444C4418.941,10248.939 4419.632,10249.409 4420.279,10249.852C4424.214,10252.547 4426.833,10254.697 4427.686,10255.765C4450.799,10284.701 4446.251,10289.852 4479.06,10306.649C4481.182,10307.735 4482.709,10309.711 4483.225,10312.038C4483.741,10314.364 4483.193,10316.8 4481.73,10318.682L4458.656,10348.348C4458.532,10358.153 4460.388,10395.898 4458.204,10421.764C4457.405,10431.227 4456.007,10439.245 4454.012,10444.3C4452.638,10447.779 4450.841,10450.239 4449.016,10451.76C4439.198,10459.941 4432.692,10466.226 4428.842,10471.082C4428.167,10471.933 4427.55,10472.873 4427.045,10473.71C4427.944,10473.849 4428.932,10473.968 4429.796,10473.996C4433.392,10474.11 4437.612,10473.833 4442.046,10473.416C4453.561,10472.333 4466.37,10470.362 4474.631,10470.539C4480.378,10470.662 4484.608,10472.093 4486.9,10473.927C4488.706,10475.372 4489.905,10475.902 4494.583,10477.789C4503.504,10481.387 4522.526,10488.571 4569.633,10508.199C4571.673,10509.049 4573.271,10510.705 4574.047,10512.775C4574.583,10514.203 4575.049,10515.666 4575.456,10517.138ZM4402.542,10237.155C4394.55,10229.936 4389.808,10221.928 4390.402,10212.833L4388.822,10213.227C4386.03,10213.925 4383.112,10213.066 4381.148,10211.045C4381.543,10213.093 4382.415,10215.126 4383.543,10217.139C4385.89,10221.326 4389.389,10225.35 4393.294,10229.131C4396.223,10231.967 4399.383,10234.658 4402.542,10237.155Z" style="fill:rgb(40,44,52);"/>
            </g>
            <g transform="matrix(1,0,0,1,0,-90.905512)">
                <path d="M4515.666,10302.888C4513.818,10299.789 4512.873,10297.053 4512.46,10295.704C4512.414,10295.554 4512.364,10295.384 4512.33,10295.271C4511.064,10291.528 4512.728,10287.385 4516.291,10285.577C4519.985,10283.703 4524.499,10284.959 4526.694,10288.472L4527.257,10289.783L4527.339,10289.742C4527.927,10291.213 4529.023,10292.095 4529.736,10293.166C4530.697,10294.611 4531.455,10296.135 4531.897,10297.884C4532.839,10298.764 4533.981,10299.577 4535.364,10300.218C4538.424,10301.638 4542.527,10302.146 4547.965,10301.24C4548.806,10301.1 4551.553,10299.699 4553.681,10292.244C4554.633,10288.906 4557.575,10286.67 4560.852,10286.455C4563.578,10277.707 4567.215,10270.165 4568.346,10268.696L4569.901,10267.11L4572.067,10265.882L4574.294,10265.382L4576.353,10265.483L4579.582,10266.837L4581.671,10269.01L4582.742,10271.463L4582.967,10274.13C4582.914,10274.857 4582.465,10277.072 4580.896,10281.001C4580.385,10282.282 4579.578,10283.358 4578.586,10284.182C4576.794,10288.711 4574.557,10295.144 4573.868,10300.504C4573.601,10302.587 4573.499,10304.572 4573.802,10306.286C4573.89,10306.782 4573.662,10307.39 4574.129,10307.536C4583.473,10310.461 4590.483,10313.263 4594.926,10316.475C4599.504,10319.785 4601.994,10323.677 4602.787,10328.154C4603.788,10333.808 4601.654,10341.486 4593.854,10351.724C4593.835,10351.755 4593.817,10351.788 4593.801,10351.816C4591.847,10355.307 4585.097,10368.996 4575.871,10384.446C4565.148,10402.402 4551.071,10422.51 4537.256,10432.895C4528.313,10439.619 4519.218,10442.443 4510.917,10440.54C4505.143,10439.216 4499.474,10435.652 4494.436,10428.724C4485.66,10416.657 4486.392,10406.92 4489.496,10397.615C4491.683,10391.059 4495.781,10384.874 4496.389,10377.572C4496.869,10371.81 4501.146,10325.488 4513.249,10307.286C4514.309,10305.691 4515.138,10304.043 4515.666,10302.888ZM4559.161,10313.176C4555.252,10316.284 4551.85,10316.813 4550.595,10317.022C4540.594,10318.689 4533.213,10317.083 4527.747,10314.308C4527.383,10314.902 4526.992,10315.514 4526.572,10316.145C4515.797,10332.35 4512.761,10373.771 4512.334,10378.901C4511.734,10386.101 4508.722,10392.531 4506.092,10398.93C4503.568,10405.07 4501.525,10411.268 4507.376,10419.314C4509.935,10422.833 4512.532,10424.843 4515.51,10425.105C4518.838,10425.397 4522.227,10423.806 4525.753,10421.449C4529.76,10418.769 4533.771,10415.012 4537.725,10410.648C4559.721,10386.369 4579.329,10344.366 4580.946,10342.263C4583.446,10339.011 4585.243,10336.261 4586.288,10333.848C4586.782,10332.707 4587.182,10331.79 4587.032,10330.944C4586.826,10329.778 4585.52,10329.329 4584.095,10328.512C4580.559,10326.483 4575.571,10324.753 4569.35,10322.806C4564.343,10321.239 4560.959,10317.861 4559.161,10313.176Z" style="fill:rgb(40,44,52);"/>
            </g>
            <g transform="matrix(1,0,0,1,0,-90.905512)">
                <path d="M4539.947,10332.866C4547.289,10330.227 4554.261,10328.115 4554.865,10328.013C4577.013,10324.293 4593.094,10337.047 4595.741,10339.165C4598.481,10341.357 4599.473,10345.079 4598.187,10348.343C4596.901,10351.608 4593.637,10353.654 4590.138,10353.389C4587.571,10353.194 4582.389,10351.481 4575.423,10349.77C4567.121,10347.732 4555.648,10345.837 4542.991,10348.631C4539.502,10349.946 4536.142,10351.35 4533.897,10352.6C4533.294,10353.746 4532.404,10354.761 4531.25,10355.529C4529.073,10356.976 4526.443,10357.216 4524.152,10356.407C4522.61,10357.372 4521.064,10358.429 4519.519,10359.585C4515.984,10362.23 4510.966,10361.507 4508.321,10357.971C4505.677,10354.436 4506.4,10349.418 4509.935,10346.773C4520.139,10339.14 4530.332,10334.929 4539.947,10332.866Z" style="fill:rgb(40,44,52);"/>
            </g>
            <g transform="matrix(1,0,0,1,0,-90.905512)">
                <path d="M4576.266,10267.352C4576.196,10268.375 4575.926,10269.401 4575.439,10270.375C4569.879,10281.497 4562.801,10286.428 4555.865,10287.997C4548.76,10289.603 4541.279,10287.656 4534.409,10283.37C4522.785,10276.117 4513.072,10262.085 4510.593,10254.649C4503.099,10232.168 4500.343,10213.651 4502.389,10200.393C4504.066,10189.525 4508.841,10181.7 4516.27,10176.978C4527.076,10170.108 4545.222,10169.914 4571.361,10180.805C4573.304,10181.615 4575.262,10183.068 4576.969,10185.363C4579.099,10188.227 4581.078,10193.018 4582.417,10199.172C4586.119,10216.184 4585.776,10245.015 4579.284,10263.419C4578.698,10265.08 4577.617,10266.427 4576.266,10267.352ZM4563.757,10260.201C4563.806,10259.499 4563.95,10258.792 4564.195,10258.096C4569.805,10242.193 4569.981,10217.274 4566.783,10202.574C4566.136,10199.6 4564.685,10196.181 4564.244,10195.177C4554.255,10191.086 4545.795,10188.753 4538.749,10188.15C4532.936,10187.651 4528.294,10188.293 4524.853,10190.481C4519.785,10193.702 4517.94,10200.019 4517.731,10208.389C4517.458,10219.289 4520.313,10233.213 4525.772,10249.589C4527.531,10254.866 4534.63,10264.649 4542.879,10269.795C4545.948,10271.711 4549.162,10273.108 4552.336,10272.39C4555.682,10271.634 4558.446,10268.584 4561.129,10263.22C4561.757,10261.962 4562.673,10260.943 4563.757,10260.201Z" style="fill:rgb(40,44,52);"/>
            </g>
            <g transform="matrix(1,0,0,1,0,-90.905512)">
                <path d="M4552.858,10217.315C4556.807,10219.289 4558.41,10224.099 4556.435,10228.048C4554.461,10231.997 4549.652,10233.6 4545.702,10231.626L4542.247,10229.898C4538.298,10227.923 4536.695,10223.114 4538.669,10219.165C4540.644,10215.216 4545.453,10213.613 4549.403,10215.587L4552.858,10217.315Z" style="fill:rgb(40,44,52);"/>
            </g>
            <g transform="matrix(1,0,0,1,0,-90.905512)">
                <path d="M4657.382,10309.522C4657.127,10311.131 4656.379,10312.678 4655.14,10313.917C4652.46,10316.597 4648.346,10316.977 4645.26,10315.057C4645.251,10315.055 4645.243,10315.053 4645.234,10315.051C4638.113,10313.355 4620.548,10312.028 4608.434,10296.326C4600.599,10286.17 4594.742,10269.678 4596.582,10242.078L4596.982,10240.039L4597.843,10238.184C4598.299,10237.429 4599.527,10235.827 4601.469,10233.772C4605.836,10229.153 4614.553,10221.087 4623.621,10215.155C4630.545,10210.626 4637.757,10207.448 4643.687,10206.992C4683.645,10203.918 4695.159,10243.772 4686.374,10275.278C4681.646,10292.236 4671.08,10305.802 4657.382,10309.522ZM4639.476,10297.629C4641.19,10295.188 4644.207,10293.807 4647.343,10294.329C4652.631,10295.211 4657.188,10293.133 4660.889,10289.538C4665.532,10285.028 4668.911,10278.338 4670.962,10270.981C4676.923,10249.602 4672.028,10220.859 4644.914,10222.945C4640.594,10223.277 4635.455,10226.366 4630.458,10229.843C4622.685,10235.252 4615.481,10242.086 4612.408,10245.495C4611.245,10268.28 4615.921,10281.306 4622.996,10288.767C4628.134,10294.186 4634.333,10296.423 4639.476,10297.629Z" style="fill:rgb(40,44,52);"/>
            </g>
            <g transform="matrix(1,0,0,1,0,-90.905512)">
                <path d="M4634.147,10238.305C4638.43,10239.375 4641.039,10243.722 4639.968,10248.006C4638.897,10252.289 4634.55,10254.898 4630.266,10253.827L4626.811,10252.963C4622.528,10251.892 4619.919,10247.545 4620.99,10243.262C4622.061,10238.978 4626.408,10236.37 4630.692,10237.441L4634.147,10238.305Z" style="fill:rgb(40,44,52);"/>
            </g>
            <g transform="matrix(1,0,0,1,0,-90.905512)">
                <path d="M4453.858,10061C4449.812,10057.52 4447.166,10050.726 4447.219,10041.888C4447.317,10025.498 4455.387,10001.351 4462.649,9992.936C4466.47,9988.508 4470.768,9987.152 4474.205,9987.551C4476.946,9987.87 4479.762,9989.165 4482.123,9992.366C4482.582,9992.988 4483.044,9993.735 4483.492,9994.618C4484.046,9993.673 4484.568,9992.771 4485.045,9991.981C4486.393,9989.747 4487.61,9988.086 4488.339,9987.357C4494.174,9981.522 4499.268,9981.136 4502.777,9982.094C4506.529,9983.119 4510.018,9986.352 4511.977,9991.779C4514.287,9998.179 4515.246,10012.182 4515.389,10014.456C4520.384,10024.441 4520.413,10024.393 4520.693,10025.371C4529.643,10056.731 4526.073,10062.425 4536.825,10084.471C4570.361,10033.637 4568.647,10032.127 4572.576,10027.543C4575.749,10023.842 4582.901,10015.507 4597.482,10009.809C4617.591,10001.95 4653.167,9998.847 4714.755,10024.508C4753.351,10040.59 4773.291,10050.655 4785.555,10066.549C4797.788,10082.401 4802.566,10104.367 4809.406,10145.411C4817.896,10196.35 4807.184,10194.94 4798.872,10225.694C4797.658,10230.185 4801.147,10232.77 4803.026,10234.9C4805.632,10237.854 4807.25,10240.659 4807.659,10242.908C4807.732,10243.31 4807.861,10243.768 4807.99,10244.171C4809.042,10243.819 4810.707,10243.214 4811.917,10242.553C4813.745,10241.555 4815.692,10240.308 4817.736,10238.901C4820.501,10236.999 4823.424,10234.816 4826.448,10232.521C4836.782,10224.675 4848.243,10215.682 4858.703,10210.965C4867.694,10206.909 4876.198,10205.958 4883.333,10209.032C4890.641,10212.181 4897.372,10219.864 4900.889,10235.692C4904.806,10253.319 4902.649,10265.957 4897.313,10275.165C4892.155,10284.067 4883.879,10290.011 4873.937,10293.91C4861.002,10298.982 4845.101,10300.511 4831.228,10301.925C4823.478,10302.715 4816.444,10303.437 4811.283,10305.055C4810.265,10305.374 4809.342,10305.724 4808.539,10306.143C4808.162,10306.339 4807.643,10306.731 4807.427,10306.899C4807.521,10307.361 4807.94,10309.276 4808.67,10310.736C4816.469,10326.333 4818.905,10336.246 4817.81,10344.417C4817.071,10349.93 4814.824,10354.854 4810.996,10360.103C4806.464,10366.319 4799.386,10373.238 4790.218,10383.552C4787.285,10386.852 4782.224,10387.149 4778.924,10384.216C4775.624,10381.283 4775.326,10376.222 4778.259,10372.922C4785.628,10364.632 4791.622,10358.637 4795.944,10353.398C4799.187,10349.465 4801.424,10346.231 4801.952,10342.292C4802.753,10336.309 4800.07,10329.312 4794.36,10317.892C4791.176,10311.525 4790.888,10306.45 4791.994,10302.497C4793.265,10297.957 4796.414,10294.318 4801.525,10291.759C4807.765,10288.635 4817.978,10287.193 4829.605,10286.008C4840.14,10284.933 4851.98,10283.91 4862.452,10280.908C4871.276,10278.378 4879.176,10274.554 4883.469,10267.143C4887.244,10260.629 4888.041,10251.633 4885.27,10239.163C4883.341,10230.48 4881.011,10225.454 4877.002,10223.726C4873.237,10222.104 4868.839,10223.801 4864.055,10226.124C4854.903,10230.568 4845.091,10238.456 4836.122,10245.264C4827.438,10251.857 4819.355,10257.445 4813.17,10259.439C4807.749,10261.186 4803.14,10260.673 4799.516,10258.46C4796.361,10256.533 4793.481,10253.024 4792.127,10246.821C4791.391,10245.991 4789.091,10243.37 4787.646,10241.431C4783.922,10236.434 4781.126,10230.031 4783.426,10221.519C4791.041,10193.344 4801.402,10194.709 4793.624,10148.042C4787.425,10110.851 4783.972,10090.688 4772.888,10076.324C4761.837,10062.002 4743.38,10053.768 4708.601,10039.277C4617.824,10001.454 4591.174,10030.431 4584.724,10037.956C4580.625,10042.738 4582.953,10044.179 4542.711,10104.542C4541.168,10106.856 4538.535,10108.203 4535.756,10108.099C4532.977,10107.995 4530.451,10106.455 4529.085,10104.033C4509.844,10069.895 4516.14,10067.867 4505.404,10030.103C4505.045,10029.421 4503.541,10026.538 4500.661,10020.779C4500.294,10020.044 4499.839,10018.795 4499.57,10017.062C4499.171,10014.494 4498.971,10009.302 4498.339,10004.177C4498.247,10003.43 4498.095,10002.585 4497.916,10001.735C4496.831,10003.519 4495.499,10005.675 4494.396,10007.358C4491.758,10011.383 4488.688,10014.72 4486.287,10016.054C4485.395,10016.55 4484.515,10016.892 4483.669,10017.111L4481.355,10017.431L4479.168,10017.224L4477.011,10016.489C4475.136,10015.59 4472.664,10013.629 4471.246,10009.241C4470.31,10011.196 4469.409,10013.384 4468.566,10015.708C4465.447,10024.312 4463.113,10034.769 4463.221,10042.714C4463.244,10044.416 4463.377,10045.977 4463.694,10047.323C4463.825,10047.878 4464.184,10048.73 4464.242,10048.864C4464.878,10049.439 4466.254,10050.812 4467.895,10053.036C4472.963,10059.905 4484.981,10078.161 4487.49,10092.692C4489.387,10103.681 4486.469,10112.842 4476.842,10117.656C4465.729,10123.212 4457.175,10126.866 4450.536,10130.385C4445.174,10133.227 4441.239,10135.809 4438.442,10139.847C4434.337,10145.775 4432.599,10154.359 4431.123,10169.118C4430.029,10180.062 4432.104,10185.355 4433.955,10190.673C4436.437,10197.804 4438.7,10204.959 4436.237,10219.739C4435.552,10223.848 4435.649,10224.881 4436.884,10226.999C4437.871,10228.693 4439.145,10230.772 4440.684,10233.85C4442.658,10237.799 4441.055,10242.608 4437.106,10244.583C4433.157,10246.557 4428.348,10244.954 4426.373,10241.005C4420.381,10229.021 4418.322,10229.9 4420.454,10217.108C4422.676,10203.779 4419.674,10198.715 4417.507,10192.02C4415.589,10186.099 4414.032,10179.23 4415.202,10167.526C4417.068,10148.867 4420.099,10138.233 4425.288,10130.739C4429.461,10124.711 4435.04,10120.49 4443.043,10116.248C4449.768,10112.683 4458.429,10108.973 4469.686,10103.345C4471.655,10102.361 4472.058,10100.443 4472.022,10098.343C4471.973,10095.562 4471.183,10092.491 4470.07,10089.348C4465.737,10077.119 4456.366,10064.184 4453.858,10061ZM4464.035,10048.682C4463.98,10048.634 4463.925,10048.589 4463.881,10048.559C4463.906,10048.576 4463.958,10048.617 4464.035,10048.682Z" style="fill:rgb(40,44,52);"/>
            </g>
            <g transform="matrix(1,0,0,1,0,-90.905512)">
                <path d="M4804.045,10285.993C4808.234,10287.389 4810.501,10291.923 4809.105,10296.112C4807.708,10300.301 4803.174,10302.568 4798.985,10301.172C4790.192,10298.241 4786.875,10291.45 4786.603,10283.56C4786.345,10276.085 4789.668,10267.378 4790.189,10264.51C4790.263,10264.099 4790,10263.651 4789.808,10263.1C4789.252,10261.508 4788.301,10259.746 4787.069,10257.81C4782.48,10250.598 4774.333,10241.676 4764.342,10231.965C4723.798,10192.562 4653.354,10141.412 4651.956,10140.48C4650.533,10139.531 4609.179,10121.001 4564.848,10111.919C4536.186,10106.047 4506.194,10103.843 4485.48,10114.2C4481.531,10116.175 4476.721,10114.572 4474.747,10110.623C4472.772,10106.673 4474.375,10101.864 4478.325,10099.889C4501.753,10088.175 4535.64,10089.603 4568.06,10096.245C4615.35,10105.933 4659.313,10126.155 4660.831,10127.167C4662.466,10128.257 4756.334,10196.484 4791.388,10237.155C4797.172,10243.866 4801.429,10249.944 4803.739,10254.942C4805.974,10259.777 4806.54,10264.018 4805.931,10267.37C4805.551,10269.461 4803.29,10275.062 4802.695,10280.659C4802.577,10281.773 4802.53,10282.886 4802.666,10283.935C4802.779,10284.804 4803.044,10285.659 4804.045,10285.993Z" style="fill:rgb(40,44,52);"/>
            </g>
            <g transform="matrix(1,0,0,1,0,-90.905512)">
                <path d="M4685.814,10136.944C4695.056,10130.009 4703.064,10127.389 4709.729,10125.429C4715.908,10123.612 4720.735,10123.398 4723.036,10115.922C4723.363,10114.859 4723.752,10114.054 4723.377,10113.405C4722.872,10112.53 4721.741,10112.201 4720.487,10111.722C4716.678,10110.266 4711.535,10109.533 4705.626,10108.91C4690.096,10107.271 4669.945,10106.707 4652.249,10101.52C4639.154,10097.682 4627.377,10091.355 4619.049,10080.945C4617.724,10079.289 4616.366,10077.762 4615.088,10076.416C4615.187,10077.423 4615.308,10078.399 4615.456,10079.263C4616.791,10087.036 4618.974,10094.67 4619.167,10095.345C4622.467,10106.895 4623.733,10105.897 4628.996,10116.424C4630.971,10120.374 4629.368,10125.183 4625.419,10127.158C4621.469,10129.132 4616.66,10127.529 4614.685,10123.58C4608.753,10111.715 4607.502,10112.759 4603.783,10099.741C4603.487,10098.707 4599.091,10083.143 4598.549,10072.44C4598.324,10067.992 4598.839,10064.178 4599.888,10061.664C4600.853,10059.352 4602.276,10057.677 4603.913,10056.536C4606.451,10054.765 4609.741,10053.87 4614.042,10055.35C4617.623,10056.583 4623.495,10060.89 4631.543,10070.95C4640.967,10082.73 4656.457,10087.051 4671.982,10089.444C4689.716,10092.178 4707.722,10092.238 4719.593,10094.853C4728.371,10096.788 4734.383,10100.465 4737.235,10105.407C4739.484,10109.305 4740.294,10114.24 4738.328,10120.627C4734.598,10132.749 4728.319,10136.389 4719.51,10139.21C4710.878,10141.974 4698.58,10143.544 4683.192,10161.444C4680.617,10164.438 4676.243,10165.106 4672.893,10163.017C4669.542,10160.928 4668.217,10156.707 4669.772,10153.077L4674.955,10140.984C4676.694,10136.925 4681.401,10135.043 4685.459,10136.782C4685.579,10136.833 4685.698,10136.887 4685.814,10136.944Z" style="fill:rgb(40,44,52);"/>
            </g>
        </g>
    </g>
</svg>
