<?xml version="1.0" encoding="UTF-8" standalone="no"?>
<!DOCTYPE svg PUBLIC "-//W3C//DTD SVG 1.1//EN" "http://www.w3.org/Graphics/SVG/1.1/DTD/svg11.dtd">
<svg width="100%" height="100%" viewBox="0 0 981 717" version="1.1" xmlns="http://www.w3.org/2000/svg" xmlns:xlink="http://www.w3.org/1999/xlink" xml:space="preserve" xmlns:serif="http://www.serif.com/" style="fill-rule:evenodd;clip-rule:evenodd;stroke-linejoin:round;stroke-miterlimit:2;">
    <g transform="matrix(1,0,0,1,-3643.5675,-5789.943803)">
        <g transform="matrix(1,0,0,1,0,-0.094488)">
            <g transform="matrix(1.410263,0.157373,-0.157373,1.410263,-881.601307,-3379.607759)">
                <g transform="matrix(1,0,0,1,0,0.094488)">
                    <path d="M4101.042,6160.053C4102.401,6158.965 4107.863,6154.746 4122.582,6144.934C4126.241,6142.495 4125.708,6139.035 4125.122,6135.481C4124.519,6131.824 4123.497,6128.012 4122.558,6124.107C4117.927,6104.852 4115.639,6084.499 4138.314,6066.359C4148.06,6058.562 4155.655,6049.085 4163.684,6043.215C4176.146,6034.105 4189.338,6030.571 4207.401,6041.119C4211.816,6043.697 4217.373,6050.795 4221.284,6060.805C4224.583,6069.248 4227.453,6080.005 4229.443,6088.349C4240.549,6084.111 4244.465,6084.221 4252.247,6084.4C4253.417,6071.678 4255.707,6053.711 4259.727,6044.629C4264.241,6034.433 4271.878,6030.74 4278.207,6030.74C4284.826,6030.74 4294.958,6028.624 4306.437,6034.312C4317.195,6039.643 4330.415,6052.267 4341.295,6084.907C4342.583,6088.771 4343.285,6093.07 4343.634,6095.795C4350.291,6098.679 4354.647,6102.566 4358.753,6107.164C4364.069,6113.116 4368.934,6120.845 4390.144,6126.147C4401.322,6128.942 4423.555,6143.471 4439.83,6160.33C4451.85,6172.781 4460.241,6186.626 4461.497,6197.297C4464.742,6224.881 4477.239,6259.771 4475.419,6284.183C4474.561,6295.693 4470.934,6305.391 4464.177,6312.702C4457.495,6319.932 4447.527,6325.243 4432.49,6326.493C4332.648,6334.792 4333.256,6324.489 4306.242,6318.359C4303.332,6317.699 4303.162,6318.878 4269.552,6311.695C4259.676,6309.584 4254.654,6308.247 4249.829,6309.178C4244.68,6310.172 4239.976,6313.388 4230.532,6318.579C4228.661,6319.607 4159.576,6346.538 4154.834,6347.487C4153.976,6347.658 4154.269,6347.271 4143.975,6348.742C4140.86,6349.187 4137.832,6348.617 4135.226,6347.284C4134.824,6350.385 4133.432,6353.382 4131.052,6355.762C4125.457,6361.357 4116.454,6361.488 4110.699,6356.157C4109.998,6355.834 4103.425,6352.815 4098.421,6350.481C4078.334,6341.114 4049.876,6323.707 4045.699,6269.414C4044.943,6259.581 4049.392,6230.007 4062.296,6203.605C4071.23,6185.327 4084.177,6168.784 4101.042,6160.053ZM4127.372,6332.064C4128.296,6325.799 4133.237,6320.615 4139.823,6319.674C4145.268,6318.896 4148.248,6318.617 4149.738,6318.518C4157.591,6316.165 4214.783,6293.729 4216.389,6292.846C4229.831,6285.459 4236.936,6281.761 4244.265,6280.347C4251.918,6278.87 4260.026,6279.633 4275.689,6282.98C4309.632,6290.235 4309.801,6289.057 4312.74,6289.724C4337.843,6295.42 4337.28,6304.942 4430.058,6297.231C4435.854,6296.749 4440.036,6295.561 4442.612,6292.774C4447.076,6287.943 4446.706,6280.329 4445.956,6271.795C4444.025,6249.82 4434.938,6222.857 4432.335,6200.728C4431.626,6194.7 4425.495,6187.758 4418.704,6180.724C4406.776,6168.367 4391.215,6156.682 4383.022,6154.634C4360.221,6148.934 4350.158,6141.008 4343.246,6133.888C4340.822,6131.392 4338.857,6128.967 4336.853,6126.723C4335.446,6125.148 4334.101,6123.628 4331.776,6122.659C4319.175,6117.409 4316.748,6111.55 4315.278,6104.987C4314.704,6102.425 4315.081,6099.12 4313.439,6094.193C4306.516,6073.423 4300.246,6064.014 4293.4,6060.622C4290.474,6059.173 4287.717,6059.392 4285.433,6059.603C4281.427,6072.344 4280.691,6096.793 4280.56,6099.666C4280.214,6107.271 4274.113,6113.35 4266.507,6113.668C4251.818,6114.282 4251.488,6111.129 4237.856,6116.587C4237.048,6116.91 4231.425,6119.112 4226.441,6120.008C4222.505,6120.715 4218.778,6120.595 4216.053,6119.914C4208.982,6118.146 4204.807,6113.606 4203.477,6106.952C4202.864,6103.882 4192.382,6070.028 4191.012,6065.607C4189.319,6064.752 4187.824,6064.277 4186.375,6064.374C4182.95,6064.605 4180.392,6067.214 4177.447,6069.85C4171.024,6075.6 4164.534,6082.985 4156.657,6089.287C4148.191,6096.06 4148.396,6103.775 4149.76,6111.098C4150.704,6116.159 4152.129,6121.144 4153.169,6125.923C4156.889,6143.013 4156.003,6157.944 4138.87,6169.365C4116.192,6184.484 4117.028,6184.882 4114.946,6185.923C4103.186,6191.804 4094.863,6203.842 4088.677,6216.499C4078.699,6236.915 4074.391,6259.559 4074.976,6267.162C4076.326,6284.716 4080.923,6296.948 4087.176,6305.591C4096.475,6318.444 4109.095,6323.141 4117.349,6326.78C4121.365,6328.551 4124.747,6330.312 4127.372,6332.064Z" style="fill:rgb(23,163,74);"/>
                </g>
                <g transform="matrix(1,0,0,1,0,0.094488)">
                    <path d="M4266.642,6314.011C4266.575,6319.754 4265.96,6348.718 4260.321,6377.271C4260.486,6378.185 4261.719,6384.871 4263.193,6389.531C4266.619,6400.359 4274.251,6416.937 4274.251,6416.937C4274.251,6416.937 4274.247,6416.933 4274.24,6416.925C4278.637,6422.679 4278.206,6430.951 4272.946,6436.21C4267.217,6441.94 4257.913,6441.94 4252.184,6436.21C4251.388,6435.414 4249.802,6433.504 4248.14,6430.382C4245.327,6425.099 4240.024,6412.899 4236.139,6401.279C4232.137,6389.308 4230.296,6377.674 4231.409,6372.109C4237.019,6344.059 4235.675,6323.023 4237.117,6311.584C4238.589,6299.911 4243.689,6293.691 4249.337,6290.889C4256.595,6287.288 4265.412,6290.258 4269.013,6297.517C4271.796,6303.126 4270.655,6309.667 4266.642,6314.011Z" style="fill:rgb(23,163,74);"/>
                </g>
                <g transform="matrix(1,0,0,1,0,0.094488)">
                    <path d="M4186.314,6345.506C4185.106,6347.672 4181.673,6353.749 4179.511,6356.752C4159.922,6383.959 4159.068,6383.333 4146.592,6414.522C4140.602,6429.499 4145.086,6446.408 4152.862,6460.388C4160.619,6474.332 4171.725,6485.931 4181.721,6488.815C4228.685,6502.362 4239.021,6516.932 4303.052,6492.031C4319.099,6485.791 4341.785,6467.443 4358.737,6450.375C4368.967,6440.075 4377.34,6430.594 4379.358,6424.538C4380.75,6420.363 4394.077,6380.75 4395.572,6371.966C4396.11,6368.809 4394.809,6362.065 4393.358,6355.362C4392.112,6349.605 4389.344,6341.769 4388.581,6339.654C4384.163,6335.311 4382.823,6328.451 4385.741,6322.614C4389.365,6315.367 4398.191,6312.425 4405.439,6316.048C4408.26,6317.459 4412.555,6321.193 4415.607,6327.987C4421.121,6340.261 4426.054,6367.874 4424.519,6376.893C4422.902,6386.393 4408.72,6429.308 4407.215,6433.823C4404.382,6442.321 4393.924,6456.615 4379.571,6471.067C4359.654,6491.12 4332.548,6512.066 4313.695,6519.398C4239.768,6548.147 4227.805,6532.669 4173.583,6517.027C4158.082,6512.556 4139.23,6496.286 4127.202,6474.662C4115.194,6453.076 4110.079,6426.742 4119.329,6403.617C4133.143,6369.082 4133.992,6369.72 4155.682,6339.595C4159.062,6334.9 4162.192,6328.053 4164.978,6325.018C4167.937,6321.795 4171.194,6320.13 4174.091,6319.406C4181.952,6317.441 4189.93,6322.227 4191.895,6330.088C4193.386,6336.053 4190.99,6342.085 4186.314,6345.506Z" style="fill:rgb(23,163,74);"/>
                </g>
                <g transform="matrix(1,0,0,1,0,0.094488)">
                    <path d="M4045.565,6288.804C4032.488,6287.187 4003.905,6293.7 3982.137,6302.451C3971.937,6306.551 3963.025,6310.557 3959.712,6315.532C3955.481,6321.884 3942.479,6335.266 3940.945,6336.838C3938.251,6340.103 3934.175,6342.186 3929.616,6342.186C3921.513,6342.186 3914.935,6335.607 3914.935,6327.504L3916.295,6321.326C3916.505,6320.872 3917.246,6319.22 3919.188,6317.109C3921.19,6314.933 3931.494,6304.929 3935.273,6299.254C3939.865,6292.36 3949.654,6284.996 3962.604,6278.926C3987.9,6267.07 4025.699,6258.655 4045.087,6259.391C4053.229,6259.7 4059.238,6261.815 4062.717,6264.258C4066.596,6266.981 4068.887,6270.462 4069.986,6274.315C4072.21,6282.107 4067.689,6290.238 4059.898,6292.462C4054.633,6293.964 4049.213,6292.388 4045.565,6288.804Z" style="fill:rgb(23,163,74);"/>
                </g>
                <g transform="matrix(1,0,0,1,0,0.094488)">
                    <path d="M4059.723,6255.323C4057.659,6255.377 4055.048,6255.474 4052.669,6255.65C4041.587,6256.47 4025.073,6257.812 4000.27,6256.736C4000.125,6256.75 3999.97,6256.765 3999.826,6256.78C3991.501,6257.639 3953.148,6262.087 3941.343,6266.379C3935.621,6270.36 3927.687,6269.8 3922.586,6264.699C3916.857,6258.97 3916.857,6249.666 3922.586,6243.937C3924.56,6241.963 3930.061,6238.768 3938.361,6236.702C3957.953,6231.825 3999.618,6227.314 4000.671,6227.362C4037.657,6229.043 4055.947,6225.227 4065.284,6225.93C4073.043,6226.514 4077.977,6229.191 4081.677,6233.229C4084.655,6236.479 4087.096,6241.203 4088.256,6248.732C4089.488,6256.741 4083.987,6264.244 4075.979,6265.477C4068.7,6266.597 4061.838,6262.155 4059.723,6255.323Z" style="fill:rgb(23,163,74);"/>
                </g>
                <g transform="matrix(1,0,0,1,0,0.094488)">
                    <path d="M4126.981,6156.514C4127.023,6154.563 4127.159,6152.466 4127.396,6150.21C4127.835,6146.039 4130.037,6142.256 4133.445,6139.813C4136.853,6137.371 4141.143,6136.502 4145.233,6137.426C4168.679,6142.724 4180.536,6152.341 4186.593,6161.005C4194.861,6172.832 4193.99,6184.647 4191.679,6191.441C4188.78,6199.966 4182.324,6203.481 4178.978,6204.318C4161.842,6208.602 4144.421,6202.41 4132.445,6194.783C4123.723,6189.229 4117.963,6182.85 4116.171,6179.826C4114.199,6176.498 4113.787,6173.583 4113.75,6171.646L4114.45,6166.783L4116.276,6162.972C4118.799,6159.187 4122.781,6156.952 4126.981,6156.514Z" style="fill:rgb(23,163,74);"/>
                </g>
                <g transform="matrix(1,0,0,1,0,0.094488)">
                    <path d="M4309.461,6180.814C4305.705,6176.994 4302.274,6170.751 4300.595,6160.681C4299.705,6155.34 4300.77,6149.743 4304.024,6144.295C4306.803,6139.642 4311.562,6134.846 4317.258,6130.65C4327.786,6122.894 4341.452,6116.941 4344.699,6115.911C4346.444,6115.357 4347.731,6115.204 4348.43,6115.145L4352.126,6115.295C4358.277,6116.32 4368.734,6120.706 4368.948,6135.497C4369.008,6139.672 4367.989,6145.662 4363.54,6153.727C4359.107,6161.765 4350.465,6173.265 4334.38,6189.299C4328.642,6195.02 4319.338,6195.005 4313.618,6189.267C4311.249,6186.891 4309.864,6183.904 4309.461,6180.814Z" style="fill:rgb(23,163,74);"/>
                </g>
                <g transform="matrix(1,0,0,1,0,0.094488)">
                    <path d="M4291.096,6265.33C4287.215,6270.539 4280.176,6272.71 4273.864,6270.181C4272.933,6269.808 4272.061,6269.35 4271.253,6268.82C4257.25,6273.193 4243.369,6270.812 4231.05,6265.379C4212.053,6256.999 4197.36,6240.996 4194.423,6237.683L4194.131,6237.353C4191.408,6234.387 4190.004,6230.408 4190.304,6226.344C4190.645,6221.723 4193.146,6217.535 4197.052,6215.044C4201.759,6212.043 4238.375,6189.271 4266.768,6187.428C4283.67,6186.331 4298.052,6191.726 4306.503,6206.094C4315.332,6221.103 4312.449,6235.467 4305.896,6247.04C4301.36,6255.05 4292.591,6263.855 4291.096,6265.33ZM4278.694,6235.258C4281.62,6231.381 4284.393,6226.42 4281.194,6220.981C4279.409,6217.946 4276.322,6217.003 4272.961,6216.736C4268.862,6216.409 4264.372,6217.058 4259.789,6218.148C4249.088,6220.692 4238.034,6225.671 4229.298,6230.241C4231.364,6231.817 4233.602,6233.383 4235.983,6234.848C4245.253,6240.551 4257.321,6245.383 4268.946,6237.633C4271.931,6235.643 4275.383,6234.892 4278.694,6235.258Z" style="fill:rgb(23,163,74);"/>
                </g>
                <g transform="matrix(1,0,0,1,0,0.094488)">
                    <path d="M4438.129,6207.413C4438.929,6208.689 4439.546,6210.112 4439.931,6211.652C4441.896,6219.513 4437.109,6227.491 4429.248,6229.456C4421.514,6231.39 4416.292,6231.23 4413.256,6230.543C4408.427,6229.449 4405.365,6227 4403.305,6224.346C4399.987,6220.072 4397.688,6212.884 4402.783,6203.807C4405.114,6199.654 4410.215,6193.638 4417.007,6186.828C4429.731,6174.069 4449.085,6157.199 4460.217,6143.84C4466.37,6136.457 4502.095,6093.697 4564.069,6083.449C4572.064,6082.127 4579.627,6087.544 4580.949,6095.539C4582.271,6103.533 4576.854,6111.097 4568.86,6112.419C4517.447,6120.921 4487.879,6156.513 4482.775,6162.638C4472.739,6174.681 4456.425,6189.512 4443.53,6201.943C4441.752,6203.657 4439.901,6205.547 4438.129,6207.413Z" style="fill:rgb(23,163,74);"/>
                </g>
                <g transform="matrix(1,0,0,1,0,0.094488)">
                    <path d="M4473.147,6191.329C4478.819,6188.751 4507.638,6176.098 4575.952,6162.814C4583.906,6161.268 4591.62,6166.47 4593.166,6174.424C4594.713,6182.378 4589.511,6190.091 4581.557,6191.637C4508.777,6205.789 4482.906,6219.077 4482.342,6219.243C4474.406,6221.577 4467.907,6222.029 4462.589,6222.056C4461.695,6222.061 4460.696,6222.057 4459.742,6222.049C4457.489,6228.899 4450.466,6233.219 4443.172,6231.893C4435.2,6230.443 4429.904,6222.794 4431.354,6214.822C4432.816,6206.777 4435.623,6202.204 4438.515,6199.249C4441.517,6196.182 4445.005,6194.31 4449.229,6193.354C4451.718,6192.791 4454.633,6192.602 4458.065,6192.644C4461.75,6192.689 4466.661,6193.077 4473.147,6191.329Z" style="fill:rgb(23,163,74);"/>
                </g>
            </g>
        </g>
    </g>
</svg>
