<?xml version="1.0" encoding="UTF-8" standalone="no"?>
<!DOCTYPE svg PUBLIC "-//W3C//DTD SVG 1.1//EN" "http://www.w3.org/Graphics/SVG/1.1/DTD/svg11.dtd">
<svg width="100%" height="100%" viewBox="0 0 196 133" version="1.1" xmlns="http://www.w3.org/2000/svg" xmlns:xlink="http://www.w3.org/1999/xlink" xml:space="preserve" xmlns:serif="http://www.serif.com/" style="fill-rule:evenodd;clip-rule:evenodd;stroke-linecap:round;stroke-linejoin:round;stroke-miterlimit:1.5;">
    <g transform="matrix(1,0,0,1,-1613.034695,-1154.140721)">
        <g transform="matrix(0.415694,0,0,0.415694,213.259395,599.140482)">
            <path d="M3570.114,1355.164L3570.114,1366.129C3542.824,1444.588 3518.665,1468.747 3511.635,1475.776" style="fill:none;stroke:black;stroke-width:40.09px;"/>
            <path d="M3723.621,1384.403C3707.305,1392.561 3711.252,1394.452 3643.213,1505.016" style="fill:none;stroke:black;stroke-width:40.09px;"/>
            <path d="M3409.298,1508.671C3569.826,1669.2 3739.94,1609.812 3796.719,1592.734" style="fill:none;stroke:black;stroke-width:40.09px;"/>
            <path d="M3818.649,1570.804C3804.812,1556.968 3737.98,1599.856 3804.029,1632.967" style="fill:none;stroke:black;stroke-width:40.09px;"/>
            <path d="M3438.537,1483.086C3440.974,1479.431 3443.41,1475.776 3445.847,1472.122C3449.633,1466.442 3438.537,1483.086 3387.368,1534.255" style="fill:none;stroke:black;stroke-width:40.09px;"/>
        </g>
    </g>
</svg>
