<?xml version="1.0" encoding="UTF-8" standalone="no"?>
<!DOCTYPE svg PUBLIC "-//W3C//DTD SVG 1.1//EN" "http://www.w3.org/Graphics/SVG/1.1/DTD/svg11.dtd">
<svg width="100%" height="100%" viewBox="0 0 708 628" version="1.1" xmlns="http://www.w3.org/2000/svg" xmlns:xlink="http://www.w3.org/1999/xlink" xml:space="preserve" xmlns:serif="http://www.serif.com/" style="fill-rule:evenodd;clip-rule:evenodd;stroke-linejoin:round;stroke-miterlimit:2;">
    <g transform="matrix(1,0,0,1,-2717.654641,-474.956355)">
        <path d="M2987.775,709.135C3001.636,639.728 3023.536,565.396 3057.767,493.511C3060.886,486.96 3065.269,483.555 3069.42,481.733C3074.904,479.326 3081.106,479.012 3087.894,482.343C3093.469,485.079 3101.785,493.595 3110.29,507.961C3124.799,532.467 3144.914,577.215 3168.515,623.189C3229.145,585.788 3303.461,538.598 3398.359,477.757C3406.465,472.56 3417.238,474.793 3422.611,482.783C3427.984,490.773 3425.988,501.593 3418.117,507.14C3326.73,571.542 3290.697,604.268 3221.506,700.865C3238.802,708.949 3258.482,720.367 3275.194,731.824C3293.406,744.309 3308.047,757.112 3313.817,765.579C3320.185,774.922 3319.817,783.307 3317.639,788.78C3315.465,794.246 3311.125,799.501 3302.234,801.724C3275.757,808.343 3248.244,796.292 3222.42,770.296C3213.297,761.112 3204.285,750.123 3195.459,737.917C3143.053,813.599 3071.091,922.985 2952.99,1094.767C2947.453,1102.821 2936.419,1104.864 2928.366,1099.327C2920.312,1093.79 2918.269,1082.756 2923.806,1074.702C2938.923,1052.713 2953.3,1031.731 2966.989,1011.698C2965.182,981.266 2960.681,887.836 2977.088,771.952C2904.572,806.288 2845.798,823.929 2740.901,858.468C2732.054,861.381 2722.462,856.942 2718.957,848.312C2715.451,839.682 2719.23,829.812 2727.603,825.73C2755.672,812.047 2860.431,751.244 2973.06,713.864C2977.952,712.24 2982.859,710.662 2987.775,709.135ZM3000.554,962.467C3073.321,855.5 3124.531,778.747 3164.643,720.833C3134.068,716.582 3100.23,719.077 3065.416,725.754C3047.627,735.783 3031.213,744.695 3015.722,752.742C3001.641,838.54 2999.758,913.873 3000.554,962.467ZM3185.142,654.538C3188.974,661.499 3192.877,668.388 3196.843,675.137C3211.191,655.224 3224.149,637.99 3236.462,622.622C3218.317,633.991 3201.252,644.606 3185.142,654.538ZM3026.094,698.374C3034.846,696.19 3043.584,694.206 3052.28,692.452C3077.706,678.063 3105.977,661.37 3138.426,641.628C3122.565,610.926 3108.24,580.804 3096.115,556.62C3090.539,545.5 3085.467,535.724 3080.937,527.91C3055.715,584.878 3038.188,642.988 3026.094,698.374ZM3161.842,684.926C3159.576,680.958 3157.331,676.955 3155.109,672.931C3149.11,676.579 3143.252,680.125 3137.527,683.571C3145.791,683.675 3153.907,684.117 3161.842,684.926Z" style="fill:rgb(23,163,74);"/>
    </g>
</svg>
