<?xml version="1.0" encoding="UTF-8" standalone="no"?>
<!DOCTYPE svg PUBLIC "-//W3C//DTD SVG 1.1//EN" "http://www.w3.org/Graphics/SVG/1.1/DTD/svg11.dtd">
<svg width="100%" height="100%" viewBox="0 0 198 205" version="1.1" xmlns="http://www.w3.org/2000/svg" xmlns:xlink="http://www.w3.org/1999/xlink" xml:space="preserve" xmlns:serif="http://www.serif.com/" style="fill-rule:evenodd;clip-rule:evenodd;stroke-linejoin:round;stroke-miterlimit:2;">
    <path d="M1.503,96.177L1.514,96.177L0.025,70.087C-0.621,58.853 11.619,51.529 21.21,57.397L42.648,70.502L86.563,45.003L92.136,11.653C93.942,0.825 106.971,-3.751 115.161,3.551L133.237,19.679C211.126,63.419 196.214,128.125 196.214,128.125L64.479,204.624C3.134,193.982 1.503,96.177 1.503,96.177ZM58.534,160.117C72.853,160.117 84.461,148.51 84.461,134.191C84.461,119.872 72.853,108.264 58.534,108.264C44.215,108.264 32.608,119.872 32.608,134.191C32.608,148.51 44.215,160.117 58.534,160.117ZM137.091,114.494C151.41,114.494 163.017,102.887 163.017,88.568C163.017,74.249 151.41,62.641 137.091,62.641C122.772,62.641 111.164,74.249 111.164,88.568C111.164,102.887 122.772,114.494 137.091,114.494Z" style="fill-rule:nonzero;"/>
</svg>
