<?xml version="1.0" encoding="UTF-8" standalone="no"?>
<!DOCTYPE svg PUBLIC "-//W3C//DTD SVG 1.1//EN" "http://www.w3.org/Graphics/SVG/1.1/DTD/svg11.dtd">
<svg width="100%" height="100%" viewBox="0 0 1989 1418" version="1.1" xmlns="http://www.w3.org/2000/svg" xmlns:xlink="http://www.w3.org/1999/xlink" xml:space="preserve" xmlns:serif="http://www.serif.com/" style="fill-rule:evenodd;clip-rule:evenodd;stroke-linejoin:round;stroke-miterlimit:2;">
    <g transform="matrix(1,0,0,1,-2775.509924,-1186.873212)">
        <g transform="matrix(1.006122,0,0,1.098773,-58.290909,-145.490254)">
            <path d="M3020.821,2079.278C3019.888,2078.843 3018.968,2078.4 3018.063,2077.947C3009.557,2073.69 3005.811,2066.175 3007.91,2055.308C3011.249,2038.018 3032.895,2008.964 3070.012,1972.794C3118.127,1925.906 3192.317,1865.984 3283.382,1802.359C3341.475,1723.142 3408.207,1649.358 3468.099,1604.777C3496.787,1583.423 3524.041,1568.713 3548.093,1562.844C3565.418,1558.617 3581.24,1558.885 3595.057,1564.067C3599.118,1565.59 3601.065,1569.845 3599.402,1573.564C3597.739,1577.282 3593.091,1579.065 3589.03,1577.542C3575.295,1572.392 3559.085,1573.921 3541.151,1580.216C3521.689,1587.047 3500.421,1599.484 3478.13,1616.077C3428.304,1653.164 3373.715,1710.79 3323.503,1774.833C3372.372,1741.902 3425.298,1708.355 3481.055,1675.432C3861.95,1397.486 4230.231,1249.874 4428.194,1222.398C4472.605,1216.235 4508.724,1216.198 4534.917,1221.768C4573.505,1216.218 4610.202,1213.104 4644.547,1212.652C4694.96,1211.988 4731.056,1216.998 4754.573,1226.437C4771.965,1233.417 4782.916,1242.911 4788.425,1254.178C4796.487,1270.667 4792.96,1291.682 4777.965,1316.059C4757.483,1349.357 4715.361,1389.905 4656.934,1434.686C4586.207,1488.894 4491.431,1549.551 4382.785,1611.534C4294.202,1694.162 4157.766,1789.705 4006.402,1878.214C3780.541,2027.682 3532.876,2157.985 3351.59,2222.455C3277.023,2248.973 3213.525,2264.359 3167.161,2265.678C3129.548,2266.748 3102.655,2258.338 3088.588,2240.696C3074.653,2223.219 3072.653,2195.762 3087.467,2156.878C3095.28,2136.368 3104.871,2115.642 3116.105,2094.768C3084.641,2095.131 3057.751,2092.027 3036.23,2085.217C2844.75,2298.164 2851.352,2408.081 2832.312,2496.93C2831.467,2500.874 2827.285,2503.447 2822.979,2502.673C2818.673,2501.899 2815.862,2498.07 2816.707,2494.127C2835.904,2404.544 2828.977,2293.565 3020.821,2079.278ZM3124.293,2080.032C3131.082,2068.183 3138.387,2056.292 3146.183,2044.372C3151.828,2028.225 3159.03,2010.858 3167.578,1992.64C3179.06,1968.166 3192.956,1942.119 3208.67,1915.415C3143.645,1973.556 3090.584,2025.863 3047.158,2073.188C3068.094,2078.894 3094.08,2080.981 3124.293,2080.032ZM3791.713,1993.722C3681.728,2047.869 3571.832,2094.184 3473.103,2125.956C3392.901,2151.766 3320.005,2167.987 3260.304,2171.191C3219.448,2173.384 3184.627,2169.457 3157.58,2158.638C3141.067,2152.033 3132.415,2136.622 3131.945,2113.942C3131.832,2108.497 3132.193,2102.597 3133,2096.286C3120.933,2118.264 3110.706,2140.086 3102.482,2161.674C3090.034,2194.35 3089.721,2217.422 3101.432,2232.109C3113.01,2246.631 3135.708,2252.004 3166.667,2251.123C3211.725,2249.841 3273.367,2234.652 3345.833,2208.881C3472.118,2163.971 3630.792,2086.933 3791.713,1993.722ZM4318.967,1647.223C4316.045,1648.826 4313.116,1650.429 4310.178,1652.032C4294.437,1665.482 4278.221,1678.958 4261.586,1692.431C4281.837,1677.155 4301.02,1662.052 4318.967,1647.223ZM4564.142,1232.627C4579.066,1241.676 4586.824,1254.568 4586.824,1271.101C4586.824,1330.639 4548.873,1402.425 4484.604,1479.72C4484.508,1480.005 4484.411,1480.292 4484.313,1480.579C4475.376,1506.608 4454.349,1537.194 4423.569,1570.687C4510.932,1519.108 4587.344,1469.033 4646.727,1423.519C4703.276,1380.178 4744.285,1341.14 4764.109,1308.913C4775.988,1289.603 4780.297,1273.191 4773.911,1260.129C4769.788,1251.697 4761.204,1244.998 4748.189,1239.774C4726.098,1230.907 4692.132,1226.589 4644.776,1227.212C4619.151,1227.549 4592.209,1229.386 4564.142,1232.627ZM3613.193,1601.661C3640.024,1587.541 3667.242,1573.743 3694.735,1560.381C3949.564,1403.103 4238.033,1279.339 4471.649,1232.688C4458.975,1233.386 4445.261,1234.758 4430.578,1236.796C4255.399,1261.109 3946.091,1380.524 3613.193,1601.661ZM3294.995,1812.517C3289.838,1819.579 3284.752,1826.685 3279.747,1833.815C3302.881,1814.366 3327.236,1794.335 3352.879,1773.695C3354.06,1772.745 3355.24,1771.796 3356.421,1770.848C3335.217,1784.846 3314.711,1798.767 3294.995,1812.517ZM3031.255,2067.737C3083.91,2010.054 3150.763,1945.036 3235.981,1871.165C3242.803,1860.595 3249.852,1850 3257.091,1839.436C3183.247,1892.868 3122.797,1942.62 3081.601,1982.765C3052.052,2011.56 3032.505,2035.138 3025.624,2051.436C3024.142,2054.944 3023.282,2058.007 3023.268,2060.63C3023.258,2062.663 3023.891,2064.269 3025.689,2065.168C3027.485,2066.067 3029.341,2066.923 3031.255,2067.737ZM3188.33,1985.618C3279.76,1868.277 3414.392,1750.045 3569.097,1642.607C3569.809,1642.113 3570.521,1641.619 3571.234,1641.125C3543.773,1656.241 3516.814,1671.629 3490.49,1687.158C3448.206,1718.031 3405.762,1750.518 3363.378,1784.632C3321.716,1818.165 3283.487,1850.074 3248.395,1880.467C3225.197,1916.579 3204.696,1952.371 3188.33,1985.618ZM4243.127,1687.946C3972.647,1830.188 3651.424,1968.398 3401.113,2041.326C3304.361,2069.515 3218.137,2087.953 3149.416,2093.236C3148.257,2100.617 3147.716,2107.451 3147.845,2113.666C3148.169,2129.343 3152.532,2140.728 3163.946,2145.294C3189.061,2155.34 3221.436,2158.69 3259.374,2156.654C3317.865,2153.515 3389.254,2137.505 3467.83,2112.218C3630.506,2059.868 3823.722,1967.789 3997.225,1866.392C4084.137,1808.865 4167.799,1748.486 4243.127,1687.946ZM4428.548,1541.826C4419.355,1551.304 4409.833,1560.836 4400.002,1570.409C4387.784,1582.307 4375.089,1594.274 4361.961,1606.289C4365.522,1604.273 4369.069,1602.258 4372.602,1600.245C4374.63,1598.346 4376.634,1596.453 4378.611,1594.568C4397.88,1576.196 4414.667,1558.542 4428.548,1541.826ZM3824.72,1501.574C4021.046,1419.582 4222.207,1367.728 4389.68,1384.475C4433.781,1388.886 4461.727,1400.762 4476.319,1417.536C4484.346,1426.764 4488.617,1437.561 4489.274,1449.741C4540.733,1383.831 4570.922,1322.851 4570.922,1271.101C4570.922,1254.131 4558.662,1243.154 4537.117,1237.301C4536.161,1237.041 4535.189,1236.791 4534.199,1236.551C4328.058,1266.677 4067.936,1366.809 3824.72,1501.574ZM3152.394,2078.382C3219.419,2072.76 3302.861,2054.671 3396.291,2027.45C3666.132,1948.832 4018.761,1794.056 4300.414,1640.474C4331.806,1613.608 4361.289,1586.849 4388.417,1560.433C4418.79,1530.858 4446.226,1501.748 4470.053,1473.427C4475.851,1454.784 4474.557,1438.883 4463.88,1426.608C4451.177,1412.005 4426.347,1402.79 4387.954,1398.951C4213.738,1381.529 4002.683,1439.926 3799.129,1528.554C3766.772,1542.642 3734.605,1557.497 3702.806,1572.939C3660.361,1599.168 3618.856,1626.327 3578.707,1654.21C3400.487,1777.978 3248.899,1915.982 3160.727,2050.328C3157.3,2060.212 3154.5,2069.595 3152.394,2078.382Z" style="fill:rgb(23,163,74);"/>
        </g>
    </g>
</svg>
