<?xml version="1.0" encoding="UTF-8" standalone="no"?>
<!DOCTYPE svg PUBLIC "-//W3C//DTD SVG 1.1//EN" "http://www.w3.org/Graphics/SVG/1.1/DTD/svg11.dtd">
<svg width="100%" height="100%" viewBox="0 0 646 940" version="1.1" xmlns="http://www.w3.org/2000/svg" xmlns:xlink="http://www.w3.org/1999/xlink" xml:space="preserve" xmlns:serif="http://www.serif.com/" style="fill-rule:evenodd;clip-rule:evenodd;stroke-linejoin:round;stroke-miterlimit:2;">
    <g transform="matrix(1,0,0,1,-3773.777035,-4529.384921)">
        <g transform="matrix(1,0,0,1,82,-0.094488)">
            <g transform="matrix(0.965926,-0.258819,0.258819,0.965926,-1405.604977,1156.413355)">
                <g transform="matrix(1,0,0,1,0,0.094488)">
                    <path d="M4179.797,4666.633C4180.338,4666.002 4183.492,4662.352 4185.337,4660.918C4189.926,4657.35 4195.14,4655.969 4201.57,4659.183C4206.712,4661.755 4208.799,4668.017 4206.228,4673.159C4204.384,4676.847 4200.642,4678.963 4196.775,4678.917C4196.193,4679.582 4195.543,4680.313 4195.095,4680.791C4193.847,4682.124 4192.538,4683.237 4191.223,4684.059C4105.571,4737.592 4072.229,4785.955 4046.261,4823.816C4034.5,4840.963 4024.119,4856.033 4011.487,4868.665C4008.678,4871.474 3993.77,4886.29 3985.334,4905.22C3980.346,4916.414 3977.483,4929.184 3982.408,4941.496C3987.368,4953.895 3991.596,4963.751 3995.927,4971.248C3999.345,4977.166 4002.584,4981.438 4006.714,4983.822C4010.355,4985.924 4014.617,4986.249 4019.95,4985.533C4027.306,4984.547 4036.17,4981.63 4047.329,4977.166C4076.005,4965.695 4094.13,4950.876 4105.273,4935.072C4131.63,4897.686 4119.271,4855.706 4119.277,4844.455C4119.28,4838.785 4123.818,4834.158 4129.487,4834.046C4135.157,4833.933 4139.874,4838.376 4140.102,4844.042C4142.619,4906.703 4147.474,4944.75 4150.362,4972.915C4154.911,5017.273 4154.795,5038.282 4134.847,5088.152C4132.453,5094.136 4112.682,5174.759 4121.974,5225.902C4127.521,5256.436 4122.971,5259.603 4119.138,5283.565C4119.182,5283.73 4119.222,5283.892 4119.258,5284.05C4119.917,5286.919 4119.682,5289.63 4118.891,5292.191C4118.572,5293.223 4117.843,5294.869 4117.52,5295.581C4116.795,5299.996 4113.345,5303.386 4109.066,5304.144C4108.235,5320.749 4105.827,5341.204 4103.387,5363.728C4097.603,5417.115 4091.878,5482.972 4112.43,5534.379C4114.284,5539.016 4116.083,5542.523 4117.959,5544.997C4118.467,5545.667 4119.215,5546.388 4119.655,5546.792C4120.255,5546.409 4121.352,5545.679 4122.039,5545.031C4124.329,5542.87 4126.568,5539.914 4128.829,5536.53C4131.536,5532.479 4134.212,5527.847 4136.858,5523.03C4143.907,5510.2 4150.763,5496.159 4157.141,5487.049C4160.777,5481.857 4164.488,5478.047 4167.891,5475.924C4172.456,5473.077 4176.987,5472.472 4181.295,5473.631C4184.015,5474.362 4186.88,5475.894 4189.569,5478.776C4193.121,5478.869 4202.025,5479.046 4209.374,5478.713C4226.009,5477.958 4245.788,5476.751 4255.56,5478.144C4257.078,5478.36 4258.464,5478.657 4259.723,5479.023C4261.461,5477.641 4263.27,5476.467 4264.981,5475.824L4269.438,5475.129L4273.934,5476.395L4276.558,5478.394L4278.719,5481.701L4279.423,5484.186L4279.498,5487.356C4279.441,5487.901 4279.214,5488.932 4278.986,5489.882C4279.57,5494.553 4276.91,5499.191 4272.313,5500.92L4267.856,5501.614L4266.833,5501.326C4266.496,5501.773 4266.251,5502.101 4266.116,5502.255L4263.437,5504.479L4259.376,5505.835L4256.228,5505.723L4253.716,5504.905L4250.879,5502.931L4249.056,5500.541L4248.474,5498.623C4245.057,5498.438 4240.547,5498.273 4236.445,5498.38C4218.665,5498.842 4196.11,5500.659 4186.58,5499.572C4182.08,5499.058 4178.947,5497.478 4176.955,5495.879C4175.252,5497.917 4172.8,5501.002 4171.11,5503.776C4165.996,5512.172 4160.637,5523.015 4155.117,5533.062C4149.596,5543.111 4143.841,5552.384 4138.13,5558.393C4132.512,5564.306 4126.506,5567.416 4120.854,5567.818C4112.336,5568.423 4101.444,5563.02 4093.086,5542.113C4074.882,5496.581 4075.477,5440.424 4079.837,5390.124C4083.952,5342.653 4091.692,5300.757 4087.607,5279.991C4086.87,5276.241 4088.245,5272.388 4091.19,5269.953C4093.989,5267.638 4097.779,5266.957 4101.19,5268.121C4103.692,5257.134 4105.208,5250.169 4101.476,5229.626C4091.41,5174.225 4112.911,5086.897 4115.504,5080.415C4133.743,5034.815 4133.796,5015.599 4129.638,4975.04C4128.629,4965.202 4127.384,4954.172 4126.081,4941.333C4124.902,4943.255 4123.643,4945.17 4122.3,4947.076C4109.317,4965.491 4088.479,4983.144 4055.066,4996.509C4026.394,5007.978 4009.199,5009.313 3996.298,5001.864C3984.028,4994.781 3974.694,4978.306 3963.065,4949.234C3955.948,4931.441 3959.096,4912.916 3966.305,4896.74C3976.165,4874.616 3993.473,4857.216 3996.755,4853.934C4012.657,4838.032 4024.612,4817.91 4041.142,4794.676C4067.034,4758.286 4103.442,4714.425 4179.797,4666.633ZM4270.622,5480.942C4269.062,5480.574 4267.216,5480.59 4265.037,5481.398C4266.888,5480.714 4268.813,5480.59 4270.622,5480.942Z" style="fill:rgb(40,44,52);"/>
                </g>
                <g transform="matrix(1,0,0,1,0,0.094488)">
                    <path d="M4262.959,4686.301C4258.084,4689.348 4251.652,4687.863 4248.605,4682.988C4245.558,4678.113 4247.042,4671.681 4251.918,4668.634C4265.554,4660.111 4298.684,4650.955 4323.087,4652.065C4335.731,4652.641 4346.177,4656.2 4352.232,4662.256C4356.298,4666.321 4356.298,4672.922 4352.232,4676.987C4348.167,4681.052 4341.566,4681.052 4337.501,4676.987C4335.711,4675.197 4332.867,4674.364 4329.602,4673.72C4324.8,4672.772 4319.171,4672.621 4313.24,4672.971C4294.443,4674.082 4272.694,4680.216 4262.959,4686.301Z" style="fill:rgb(40,44,52);"/>
                </g>
                <g transform="matrix(1,0,0,1,0,0.094488)">
                    <path d="M4420.064,4966.132C4422.44,4945.619 4432.011,4933.4 4440.307,4908.564C4440.321,4908.524 4440.334,4908.484 4440.347,4908.445C4442.158,4903.01 4448.018,4900.058 4453.463,4901.837C4458.909,4903.616 4461.896,4909.458 4460.15,4914.914C4460.137,4914.953 4460.124,4914.993 4460.111,4915.033C4453.695,4935.076 4447.215,4953.502 4440.688,4970.444C4440.087,4977.734 4440.544,4986.307 4442.544,4997.304C4447.307,5023.502 4458.939,5041.139 4473.945,5051.504C4496.164,5066.851 4525.238,5066.208 4547.55,5055.451C4562.894,5048.053 4575.175,5035.804 4579.116,5020.16C4592.87,4965.575 4570.41,4929.262 4553.889,4904.269C4545.49,4891.562 4538.612,4881.168 4536.518,4872.793C4528.366,4840.182 4513.781,4816.588 4497.479,4794.002C4480.956,4771.108 4462.728,4749.203 4446.931,4720.998C4408.503,4710.497 4395.54,4709.412 4390.566,4708.141C4386.608,4707.129 4384.566,4705.641 4383.007,4704.012C4381.81,4702.762 4380.841,4701.297 4380.03,4699.27L4379.395,4693.866C4379.605,4692.253 4381.103,4684.265 4381.957,4682.582L4383.782,4679.976L4385.993,4678.189L4389.531,4676.838L4392.642,4676.73L4396.675,4678.055L4399.886,4680.904C4400.29,4681.444 4401.675,4683.712 4402.177,4689.022C4410.907,4690.613 4428.694,4694.3 4456.725,4702.087C4459.453,4702.845 4461.754,4704.68 4463.101,4707.171C4478.909,4736.419 4497.59,4758.558 4514.372,4781.809C4532.133,4806.417 4547.847,4832.21 4556.73,4867.74C4559.083,4877.155 4569.426,4889.125 4579.297,4905.349C4596.274,4933.252 4612.837,4971.597 4599.318,5025.25C4593.909,5046.72 4577.656,5064.064 4556.597,5074.217C4527.946,5088.031 4490.638,5088.354 4462.105,5068.646C4445.11,5056.907 4431.026,5038.049 4424.05,5010.313C4374.424,5119.721 4323.08,5151.467 4277.899,5162.762C4239.665,5172.321 4207.213,5157.34 4181.893,5135.1C4153.348,5110.028 4134.189,5075.798 4126.376,5061.754C4125.268,5059.763 4124.058,5057.675 4123.747,5057.141C4120.489,5053.053 4120.752,5047.074 4124.535,5043.291C4128.6,5039.226 4135.201,5039.226 4139.266,5043.291C4139.91,5043.935 4141.558,5046.208 4143.691,5050.026C4149.014,5059.559 4161.614,5082.986 4180.609,5104.396C4202.776,5129.382 4233.877,5152.293 4272.846,5142.551C4319.187,5130.966 4370.136,5094.691 4420.064,4966.132Z" style="fill:rgb(40,44,52);"/>
                </g>
                <g transform="matrix(1,0,0,1,0,0.094488)">
                    <path d="M4360.897,5431.302C4358.865,5412.434 4363.478,5396.87 4369.281,5383.18C4368.683,5381.767 4368.126,5380.307 4367.615,5378.795C4361.345,5360.228 4361.975,5332.915 4380.03,5287.776C4393.157,5254.959 4387.034,5254.141 4390.502,5165.699C4392.312,5119.521 4379.6,5112.305 4376.045,5110.37C4374.327,5109.434 4373.252,5108.483 4372.626,5107.811L4370.824,5105.205L4369.762,5101.368L4370.312,5097.018L4372.621,5093.194L4376.076,5090.659C4380.795,5088.299 4386.457,5089.863 4389.344,5094.11C4392.085,5095.982 4396.055,5099.155 4399.168,5103.529C4405.604,5112.569 4412.741,5130.258 4411.319,5166.515C4407.652,5260.028 4413.253,5260.815 4399.373,5295.514C4389.272,5320.767 4384.959,5339.325 4384.743,5353.544C4387.219,5351.996 4390.319,5351.503 4393.3,5352.41C4398.397,5353.96 4401.502,5359.106 4400.498,5364.338C4398.821,5373.078 4397.156,5380.266 4395.529,5386.432C4400.572,5392.402 4406.762,5397.044 4412.651,5401.845C4424.139,5411.209 4434.821,5420.972 4439.935,5436.315C4446.113,5454.849 4452.756,5474.653 4455.363,5489.174C4456.732,5496.799 4456.961,5503.248 4456.047,5507.873C4454.921,5513.567 4452.157,5517.461 4448.551,5519.832C4445.169,5522.056 4440.672,5523.259 4434.707,5521.991C4429.969,5520.984 4423.439,5517.989 4415.032,5511.984C4394.106,5497.037 4384.494,5491.47 4377.36,5480.711C4376.791,5479.853 4376.237,5478.96 4375.694,5478.027C4368.322,5507.563 4343.684,5545.335 4340.09,5550.739C4327.403,5569.819 4313.426,5575.794 4301.125,5574.983C4288.8,5574.17 4277.023,5566.085 4268.185,5553.58C4258.89,5540.43 4252.768,5522.502 4252.176,5506.03C4251.744,5494.013 4254.27,5482.77 4259.973,5474.193C4263.156,5469.406 4269.628,5468.103 4274.415,5471.287C4279.202,5474.47 4280.505,5480.941 4277.321,5485.728C4273.837,5490.969 4272.732,5497.939 4272.995,5505.281C4273.447,5517.846 4278.108,5531.524 4285.198,5541.556C4290.018,5548.375 4295.774,5553.751 4302.495,5554.194C4309.248,5554.64 4315.778,5549.678 4322.742,5539.204C4326.371,5533.746 4355.171,5491.372 4356.889,5464.728C4357.824,5450.228 4359.195,5439.811 4360.897,5431.302ZM4388.624,5408.898C4386.117,5416.336 4383.85,5423.072 4381.967,5431.856C4382.427,5434.878 4383.102,5438 4384.025,5441.231C4387.988,5455.102 4390.754,5463.212 4394.723,5469.198C4400.763,5478.307 4409.424,5482.377 4427.141,5495.031C4429.93,5497.024 4433.072,5498.726 4435.455,5499.905C4435.346,5497.311 4435.09,5493.938 4434.505,5490.995C4431.809,5477.443 4425.75,5459.639 4420.171,5442.903C4417.79,5435.759 4413.467,5430.503 4408.544,5425.807C4402.515,5420.057 4395.611,5415.092 4389.229,5409.438C4389.027,5409.259 4388.825,5409.079 4388.624,5408.898ZM4389.218,5106.022C4388.262,5107.367 4386.971,5108.504 4385.393,5109.293C4387.291,5108.343 4388.474,5107.19 4389.218,5106.022Z" style="fill:rgb(40,44,52);"/>
                </g>
                <g transform="matrix(1,0,0,1,0,0.094488)">
                    <path d="M4179.604,5349.13C4175.011,5349.408 4170.619,5346.595 4169.095,5342.025C4167.277,5336.571 4170.229,5330.667 4175.683,5328.848C4177.038,5328.397 4179.457,5327.968 4182.781,5328.498C4187.004,5329.172 4195.804,5331.975 4205.653,5334.507C4213.077,5336.415 4221.189,5338.194 4227.991,5338.232C4229.961,5338.243 4231.785,5338.121 4233.354,5337.681C4233.786,5337.559 4234.316,5337.717 4234.486,5337.34C4235.303,5335.532 4234.469,5333.018 4233.235,5329.381C4231.051,5322.938 4226.664,5314.702 4219.629,5304.148C4205.219,5282.534 4205.338,5283.418 4187.304,5265.385C4177.715,5255.796 4173.765,5247.648 4171.178,5241.704C4170.404,5239.925 4169.282,5237.508 4169.077,5237.067C4165.307,5232.983 4165.405,5226.605 4169.37,5222.64C4173.435,5218.575 4180.036,5218.575 4184.101,5222.64C4186.011,5224.55 4187.638,5227.281 4189.249,5230.995C4191.196,5235.483 4193.742,5242.36 4202.035,5250.653C4221.536,5270.154 4221.381,5269.22 4236.963,5292.592C4247.973,5309.108 4253.233,5321.174 4254.834,5329.668C4256.445,5338.221 4254.818,5344.375 4251.876,5348.803C4248.871,5353.328 4244.231,5356.431 4238.185,5357.952C4232.115,5359.478 4224.229,5359.301 4215.943,5357.994C4202.033,5355.799 4182.173,5349.902 4179.604,5349.13Z" style="fill:rgb(40,44,52);"/>
                </g>
                <g transform="matrix(1,0,0,1,0,0.094488)">
                    <path d="M4267.445,5242.311C4268.691,5236.698 4274.26,5233.153 4279.872,5234.399C4285.485,5235.645 4289.029,5241.214 4287.783,5246.826C4278.208,5289.951 4273.985,5307.025 4272.447,5315.003C4271.937,5317.651 4271.747,5318.268 4272.028,5319.391C4272.766,5322.345 4273.533,5324.465 4275.137,5325.467C4277.766,5327.107 4281.151,5325.611 4284.812,5324.128C4301.24,5317.476 4319.641,5298.786 4321.809,5296.618C4325.874,5292.553 4332.475,5292.553 4336.54,5296.618C4340.605,5300.683 4340.605,5307.284 4336.54,5311.349C4333.983,5313.906 4312.01,5335.591 4292.632,5343.438C4281.941,5347.768 4271.786,5347.932 4264.108,5343.141C4258.849,5339.859 4254.238,5334.129 4251.816,5324.444C4250.964,5321.035 4250.441,5319.1 4251.991,5311.059C4253.542,5303.015 4257.79,5285.796 4267.445,5242.311Z" style="fill:rgb(40,44,52);"/>
                </g>
                <g transform="matrix(1,0,0,1,0,0.094488)">
                    <path d="M4235.695,5073.464L4237.565,5071.779L4239.624,5070.665L4244.128,5069.92C4244.674,5069.95 4247.544,5070.223 4252.231,5073.528C4252.388,5073.638 4252.541,5073.752 4252.689,5073.869C4253.119,5073.859 4253.553,5073.875 4253.992,5073.918C4266.893,5075.209 4274.916,5077.075 4280.032,5078.937L4288.589,5080.6C4293.006,5078.355 4298.417,5079.533 4301.496,5083.451C4301.936,5084.011 4302.311,5084.604 4302.62,5085.22C4302.678,5085.224 4302.736,5085.227 4302.793,5085.231C4315.093,5085.994 4330.444,5086.754 4342.848,5089.864C4346.97,5090.898 4350.052,5094.332 4350.633,5098.542C4351.215,5102.752 4349.181,5106.894 4345.493,5109.006C4345.389,5109.066 4345.285,5109.126 4345.181,5109.185C4344.379,5110.764 4343.17,5112.151 4341.613,5113.17L4342.24,5115.744L4342.219,5118.075L4340.928,5121.983C4340.664,5122.447 4339.387,5124.56 4336.052,5126.591C4333.935,5127.879 4329.395,5130.364 4323.494,5133.328C4319.091,5136.208 4313.928,5139.317 4305.864,5141.605C4295.78,5146.005 4284.889,5150.143 4275.823,5152.241C4269.101,5153.797 4263.162,5154.219 4258.726,5153.492C4257.024,5154.105 4255.204,5154.256 4253.452,5153.959C4251.301,5155.13 4248.743,5155.542 4246.212,5154.979C4227.393,5150.797 4197.761,5134.211 4196.567,5133.713C4191.981,5131.798 4189.438,5126.948 4190.342,5122.173C4186.314,5119.806 4181.187,5116.308 4173.347,5110.726C4172.313,5109.989 4171.432,5109.078 4170.737,5108.041C4166.154,5107.372 4162.457,5103.695 4161.905,5098.933C4161.635,5096.608 4162.155,5094.363 4163.259,5092.477C4163.054,5092.464 4162.846,5092.451 4162.635,5092.438C4157.202,5092.098 4152.946,5087.632 4152.869,5082.189C4152.793,5076.745 4156.92,5072.161 4162.342,5071.668C4203.462,5067.93 4222.68,5068.949 4235.695,5073.464Z" style="fill:rgb(40,44,52);"/>
                </g>
                <g transform="matrix(1,0,0,1,0,0.094488)">
                    <path d="M4373.161,4980.131C4373.287,4981.314 4373.211,4982.539 4372.906,4983.759C4371.512,4989.337 4365.852,4992.733 4360.274,4991.339C4353.337,4989.604 4318.178,4984.966 4300.014,4959.24C4287.798,4941.938 4282.168,4914.825 4299.329,4871.988C4301.129,4867.495 4305.018,4863.147 4311.052,4859.873C4317.376,4856.444 4326.468,4853.979 4336.86,4853.319C4359.981,4851.851 4389.474,4859.305 4406.848,4881.067C4418.433,4895.578 4425.057,4916.53 4420.152,4945.957C4417.104,4964.246 4401.003,4973.011 4383.678,4977.628C4380.109,4978.58 4376.533,4979.374 4373.161,4980.131ZM4347.447,4967.218C4348.322,4966.57 4349.291,4965.96 4350.358,4965.396C4354.989,4962.945 4362.483,4961.202 4370.781,4959.322C4377.621,4957.772 4385.159,4956.042 4391.258,4952.721C4395.341,4950.498 4398.772,4947.515 4399.602,4942.532C4403.253,4920.629 4399.19,4904.866 4390.567,4894.066C4377.631,4877.862 4355.396,4873.017 4338.18,4874.111C4332.287,4874.485 4326.973,4875.561 4322.88,4877.284C4321.641,4877.806 4320.536,4878.376 4319.618,4879.028C4319.244,4879.293 4318.8,4879.406 4318.668,4879.736C4305.391,4912.878 4307.581,4933.837 4317.033,4947.223C4324.944,4958.428 4337.163,4964.129 4347.447,4967.218Z" style="fill:rgb(40,44,52);"/>
                </g>
                <g transform="matrix(1,0,0,1,0,0.094488)">
                    <path d="M4257.554,4966.282C4259.239,4967.109 4260.721,4968.401 4261.788,4970.108C4264.835,4974.983 4263.351,4981.415 4258.476,4984.462C4255.413,4986.376 4240.7,4995.524 4222.991,4999.619C4210.092,5002.601 4195.748,5002.844 4182.715,4996.88C4168.96,4990.584 4156.154,4977.377 4148.786,4951.589C4142.751,4930.468 4144.261,4913.036 4150.181,4898.871C4163.702,4866.517 4201.603,4850.816 4232.227,4848.263C4243.663,4847.31 4254.027,4848.165 4261.69,4850.345C4268.597,4852.31 4273.657,4855.523 4276.65,4859.114C4292.202,4877.777 4292.5,4898.248 4286.309,4917.231C4279.712,4937.456 4265.046,4955.729 4257.554,4966.282ZM4234.362,4973.801L4233.717,4971.959L4233.454,4969.588C4233.441,4968.284 4233.638,4966.703 4234.271,4964.904C4235.447,4961.56 4240.144,4955.03 4246.258,4946.66C4253.362,4936.936 4262.509,4923.842 4266.861,4909.636C4270.589,4897.468 4270.57,4884.362 4260.645,4872.452C4259.356,4870.905 4256.577,4870.392 4253.27,4869.734C4247.877,4868.662 4241.197,4868.421 4233.957,4869.025C4210.18,4871.007 4179.901,4881.783 4169.403,4906.904C4165.029,4917.37 4164.359,4930.26 4168.817,4945.866C4173.923,4963.736 4181.854,4973.574 4191.385,4977.936C4200.085,4981.918 4209.688,4981.311 4218.299,4979.321C4224.225,4977.951 4229.738,4975.88 4234.362,4973.801Z" style="fill:rgb(40,44,52);"/>
                </g>
                <g transform="matrix(1,0,0,1,0,0.094488)">
                    <path d="M4191.849,4876.313L4215.223,4866.289C4215.627,4866.115 4216.037,4865.97 4216.45,4865.85C4218.77,4863.834 4221.937,4862.334 4226.339,4861.614C4232.674,4860.577 4243.756,4861.423 4261.684,4862.401C4264.697,4862.565 4267.359,4864 4269.153,4866.174C4274.213,4868.292 4277.968,4871.437 4280.749,4875.112C4287.559,4884.111 4288.341,4897.84 4285.362,4911.475C4281.425,4929.496 4271.573,4946.904 4269.576,4949.068C4261.767,4957.528 4256.535,4962.46 4253.323,4964.888C4250.449,4967.06 4248.173,4967.966 4246.702,4968.33L4243.561,4968.686L4240.722,4968.264L4240.423,4968.137C4239.594,4969.032 4238.593,4969.797 4237.438,4970.374C4233.124,4972.531 4228.023,4971.41 4224.973,4967.957C4222.627,4966.384 4214.589,4960.142 4199.787,4940.406C4186.189,4922.275 4190.435,4920.844 4177.671,4901.461C4176.035,4898.975 4175.539,4895.909 4176.31,4893.035C4176.583,4892.014 4177.008,4891.052 4177.56,4890.176C4177.21,4885.926 4179.512,4881.728 4183.604,4879.852C4184.533,4879.426 4187.594,4878.061 4191.849,4876.313Z" style="fill:rgb(40,44,52);"/>
                </g>
                <g transform="matrix(1,0,0,1,0,0.094488)">
                    <path d="M4314.345,4873.74C4314.192,4872.454 4314.277,4871.121 4314.633,4869.8C4316.051,4864.531 4321.296,4861.249 4326.655,4862.278C4340.829,4865 4349.066,4866.339 4355.987,4868.401C4356.011,4868.404 4356.035,4868.406 4356.059,4868.409C4358.457,4868.705 4360.831,4869.055 4363.328,4869.597C4365.723,4868.614 4368.48,4868.522 4371.06,4869.525C4384.691,4874.826 4393.135,4880.323 4397.969,4885.416C4402.731,4890.433 4404.72,4895.507 4405.093,4900.313C4405.173,4901.348 4405.175,4902.383 4405.099,4903.416C4405.598,4904.347 4406.05,4905.28 4406.458,4906.215C4407.882,4909.478 4408.781,4912.789 4409.248,4916.114C4409.485,4916.88 4409.684,4917.651 4409.847,4918.425C4411.01,4923.956 4410.394,4929.853 4407.522,4936.333C4407.365,4936.898 4407.2,4937.462 4407.029,4938.024C4405.788,4942.098 4404.172,4946.055 4402.554,4949.786C4402.349,4952.05 4401.407,4954.182 4399.885,4955.856C4398.89,4958.134 4397.987,4960.287 4397.283,4962.282C4396.229,4965.268 4393.932,4967.503 4391.147,4968.558C4391.274,4972.498 4389.148,4976.343 4385.393,4978.22C4380.251,4980.791 4373.989,4978.704 4371.418,4973.562C4368.835,4968.396 4357.133,4955.403 4345.125,4940.977C4331.728,4924.883 4317.956,4907.23 4312.919,4895.702C4309.139,4887.052 4309.924,4880.085 4312.619,4875.936C4313.114,4875.172 4313.686,4874.433 4314.345,4873.74Z" style="fill:rgb(40,44,52);"/>
                </g>
            </g>
        </g>
    </g>
</svg>
